<svg xmlns="http://www.w3.org/2000/svg" viewBox="0 0 640 475" role="img" aria-labelledby="title desc"><title id="title">Estudiantes en el campus</title><desc id="desc">Ilustración de estudiantes conversando bajo árboles.</desc><rect width="640" height="475" fill="#a8ded0"/><circle cx="100" cy="55" r="110" fill="#72b9a7"/><circle cx="570" cy="80" r="100" fill="#65a894"/><path d="M0 350Q150 295 310 360T640 325V475H0Z" fill="#549878"/><path d="M130 450V215M85 280l45-90 45 90M480 450V175M425 260l55-115 55 115" stroke="#254b41" stroke-width="14" fill="none"/><path d="M110 210q20-90 70 0M450 185q30-105 80 0" stroke="#2b6658" stroke-width="42" fill="none" stroke-linecap="round"/><circle cx="276" cy="255" r="32" fill="#8c513c"/><path d="M220 405q0-105 56-105t56 105" fill="#ff765e"/><circle cx="380" cy="270" r="31" fill="#6a3f32"/><path d="M325 410q0-100 55-100t55 100" fill="#164d7b"/><path d="M177 441H465" stroke="#f6ebbb" stroke-width="10" stroke-linecap="round"/></svg>
